<mxfile host="app.diagrams.net" agent="Mozilla/5.0 (Windows NT 10.0; Win64; x64) AppleWebKit/537.36 (KHTML, like Gecko) Chrome/135.0.0.0 Safari/537.36 Edg/135.0.0.0" version="26.2.9">
  <diagram name="Страница — 1" id="Mvc8dORK6teexmqEgj_L">
    <mxGraphModel dx="1036" dy="578" grid="1" gridSize="10" guides="1" tooltips="1" connect="1" arrows="1" fold="1" page="1" pageScale="1" pageWidth="1169" pageHeight="827" math="0" shadow="0">
      <root>
        <mxCell id="0" />
        <mxCell id="1" parent="0" />
        <mxCell id="eJ1heWy5WJ7UI9jHcj8u-13" value="" style="edgeStyle=orthogonalEdgeStyle;rounded=0;orthogonalLoop=1;jettySize=auto;html=1;entryX=0;entryY=0.5;entryDx=0;entryDy=0;" edge="1" parent="1" source="eJ1heWy5WJ7UI9jHcj8u-2" target="eJ1heWy5WJ7UI9jHcj8u-14">
          <mxGeometry relative="1" as="geometry">
            <mxPoint x="710" y="265" as="targetPoint" />
          </mxGeometry>
        </mxCell>
        <mxCell id="eJ1heWy5WJ7UI9jHcj8u-2" value="Аренда торгового автомата" style="rounded=0;whiteSpace=wrap;html=1;" vertex="1" parent="1">
          <mxGeometry x="470" y="220" width="160" height="90" as="geometry" />
        </mxCell>
        <mxCell id="eJ1heWy5WJ7UI9jHcj8u-7" style="edgeStyle=orthogonalEdgeStyle;rounded=0;orthogonalLoop=1;jettySize=auto;html=1;entryX=0.25;entryY=0;entryDx=0;entryDy=0;" edge="1" parent="1" source="eJ1heWy5WJ7UI9jHcj8u-4" target="eJ1heWy5WJ7UI9jHcj8u-2">
          <mxGeometry relative="1" as="geometry" />
        </mxCell>
        <mxCell id="eJ1heWy5WJ7UI9jHcj8u-4" value="Бюджет" style="text;html=1;align=center;verticalAlign=middle;whiteSpace=wrap;rounded=0;" vertex="1" parent="1">
          <mxGeometry x="480" y="80" width="60" height="30" as="geometry" />
        </mxCell>
        <mxCell id="eJ1heWy5WJ7UI9jHcj8u-5" value="Договор аренды&amp;nbsp;" style="text;html=1;align=center;verticalAlign=middle;whiteSpace=wrap;rounded=0;" vertex="1" parent="1">
          <mxGeometry x="550" y="80" width="100" height="30" as="geometry" />
        </mxCell>
        <mxCell id="eJ1heWy5WJ7UI9jHcj8u-8" style="edgeStyle=orthogonalEdgeStyle;rounded=0;orthogonalLoop=1;jettySize=auto;html=1;entryX=0.815;entryY=0.004;entryDx=0;entryDy=0;entryPerimeter=0;" edge="1" parent="1" source="eJ1heWy5WJ7UI9jHcj8u-5" target="eJ1heWy5WJ7UI9jHcj8u-2">
          <mxGeometry relative="1" as="geometry" />
        </mxCell>
        <mxCell id="eJ1heWy5WJ7UI9jHcj8u-10" style="edgeStyle=orthogonalEdgeStyle;rounded=0;orthogonalLoop=1;jettySize=auto;html=1;entryX=0.5;entryY=0;entryDx=0;entryDy=0;" edge="1" parent="1" source="eJ1heWy5WJ7UI9jHcj8u-9" target="eJ1heWy5WJ7UI9jHcj8u-2">
          <mxGeometry relative="1" as="geometry" />
        </mxCell>
        <mxCell id="eJ1heWy5WJ7UI9jHcj8u-9" value="Законы" style="text;html=1;align=center;verticalAlign=middle;whiteSpace=wrap;rounded=0;" vertex="1" parent="1">
          <mxGeometry x="520" y="100" width="60" height="30" as="geometry" />
        </mxCell>
        <mxCell id="eJ1heWy5WJ7UI9jHcj8u-14" value="Арендованный торговый автомат" style="text;html=1;align=center;verticalAlign=middle;whiteSpace=wrap;rounded=0;" vertex="1" parent="1">
          <mxGeometry x="720" y="250" width="110" height="30" as="geometry" />
        </mxCell>
        <mxCell id="eJ1heWy5WJ7UI9jHcj8u-16" style="edgeStyle=orthogonalEdgeStyle;rounded=0;orthogonalLoop=1;jettySize=auto;html=1;entryX=0;entryY=0.5;entryDx=0;entryDy=0;" edge="1" parent="1" source="eJ1heWy5WJ7UI9jHcj8u-15" target="eJ1heWy5WJ7UI9jHcj8u-2">
          <mxGeometry relative="1" as="geometry" />
        </mxCell>
        <mxCell id="eJ1heWy5WJ7UI9jHcj8u-15" value="Бронирование торгового автомата" style="text;html=1;align=center;verticalAlign=middle;whiteSpace=wrap;rounded=0;" vertex="1" parent="1">
          <mxGeometry x="260" y="250" width="130" height="30" as="geometry" />
        </mxCell>
        <mxCell id="eJ1heWy5WJ7UI9jHcj8u-18" style="edgeStyle=orthogonalEdgeStyle;rounded=0;orthogonalLoop=1;jettySize=auto;html=1;entryX=0.25;entryY=1;entryDx=0;entryDy=0;" edge="1" parent="1" source="eJ1heWy5WJ7UI9jHcj8u-17" target="eJ1heWy5WJ7UI9jHcj8u-2">
          <mxGeometry relative="1" as="geometry" />
        </mxCell>
        <mxCell id="eJ1heWy5WJ7UI9jHcj8u-17" value="Администратор франчайзер" style="text;html=1;align=center;verticalAlign=middle;whiteSpace=wrap;rounded=0;" vertex="1" parent="1">
          <mxGeometry x="460" y="393" width="90" height="41.5" as="geometry" />
        </mxCell>
        <mxCell id="eJ1heWy5WJ7UI9jHcj8u-19" value="Выездной инженер" style="text;html=1;align=center;verticalAlign=middle;whiteSpace=wrap;rounded=0;" vertex="1" parent="1">
          <mxGeometry x="557.5" y="393" width="85" height="30" as="geometry" />
        </mxCell>
        <mxCell id="eJ1heWy5WJ7UI9jHcj8u-20" style="edgeStyle=orthogonalEdgeStyle;rounded=0;orthogonalLoop=1;jettySize=auto;html=1;entryX=0.83;entryY=1.018;entryDx=0;entryDy=0;entryPerimeter=0;" edge="1" parent="1" source="eJ1heWy5WJ7UI9jHcj8u-19" target="eJ1heWy5WJ7UI9jHcj8u-2">
          <mxGeometry relative="1" as="geometry">
            <Array as="points">
              <mxPoint x="603" y="370" />
              <mxPoint x="603" y="370" />
            </Array>
          </mxGeometry>
        </mxCell>
      </root>
    </mxGraphModel>
  </diagram>
</mxfile>
